<svg width="39" height="47" viewBox="0 0 39 47" fill="none" xmlns="http://www.w3.org/2000/svg">
<path d="M21.3253 18.9632C24.103 20.3086 26.2187 22.3017 27.4047 24.4123C28.5914 26.5247 28.8274 28.7087 27.9557 30.5083C27.084 32.3079 25.224 33.4767 22.8308 33.8551C20.4395 34.233 17.564 33.8084 14.7864 32.4629C12.0088 31.1175 9.89303 29.1245 8.7071 27.0139C7.52034 24.9015 7.2844 22.7175 8.15609 20.9179C9.02778 19.1182 10.8877 17.9494 13.2809 17.5711C15.6723 17.1932 18.5477 17.6178 21.3253 18.9632Z" fill="#9EB3FF" stroke="#2F5BFF"/>
<ellipse cx="14.9052" cy="24.1873" rx="7" ry="6" transform="rotate(25.8444 14.9052 24.1873)" fill="#9EB3FF"/>
<mask id="path-3-inside-1_543_206" fill="white">
<path d="M23.1275 27.8629C23.1241 27.8702 23.1213 27.8779 23.1178 27.8853C23.1144 27.8922 23.1101 27.899 23.1067 27.9059L22.9142 28.3032L22.8641 28.2789C21.8342 29.5298 19.2445 29.6203 16.7511 28.4126C14.2578 27.2048 12.7232 25.1166 13.0663 23.5331L13.0144 23.508L17.467 14.3157L27.3668 19.1109L23.1275 27.8629Z"/>
</mask>
<path d="M23.1275 27.8629C23.1241 27.8702 23.1213 27.8779 23.1178 27.8853C23.1144 27.8922 23.1101 27.899 23.1067 27.9059L22.9142 28.3032L22.8641 28.2789C21.8342 29.5298 19.2445 29.6203 16.7511 28.4126C14.2578 27.2048 12.7232 25.1166 13.0663 23.5331L13.0144 23.508L17.467 14.3157L27.3668 19.1109L23.1275 27.8629Z" fill="#5D84FF"/>
<path d="M23.1275 27.8629L22.2275 27.4269L22.2221 27.4383L23.1275 27.8629ZM23.1178 27.8853L24.0177 28.3212L24.0178 28.321L23.1178 27.8853ZM23.1067 27.9059L22.2118 27.4594L22.2067 27.47L23.1067 27.9059ZM22.9142 28.3032L22.4783 29.2032L23.3783 29.6391L23.8142 28.7391L22.9142 28.3032ZM22.8641 28.2789L23.3001 27.3789L22.5922 27.036L22.0922 27.6433L22.8641 28.2789ZM16.7511 28.4126L16.3151 29.3125L16.3152 29.3126L16.7511 28.4126ZM13.0663 23.5331L14.0436 23.7448L14.2102 22.976L13.5022 22.6331L13.0663 23.5331ZM13.0144 23.508L12.1145 23.072L11.6785 23.972L12.5785 24.4079L13.0144 23.508ZM17.467 14.3157L17.9029 13.4157L17.0029 12.9798L16.567 13.8797L17.467 14.3157ZM27.3668 19.1109L28.2667 19.5468L28.7027 18.6468L27.8027 18.2109L27.3668 19.1109ZM23.1275 27.8629L22.2221 27.4383C22.2147 27.4541 22.209 27.4673 22.2055 27.4755C22.2036 27.4798 22.2022 27.4833 22.2012 27.4856C22.2007 27.4868 22.2003 27.4878 22.2 27.4885C22.1999 27.4888 22.1997 27.4892 22.1996 27.4894C22.1995 27.4896 22.1995 27.4898 22.1994 27.4899C22.1992 27.4905 22.1995 27.4897 22.2001 27.4884C22.2006 27.487 22.2017 27.4844 22.2032 27.4811C22.206 27.4746 22.211 27.4634 22.2177 27.4495L23.1178 27.8853L24.0178 28.321C24.0263 28.3035 24.033 28.2885 24.0374 28.2783C24.0417 28.2686 24.0451 28.2603 24.0459 28.2582C24.0477 28.2541 24.0462 28.2577 24.0446 28.2613C24.0427 28.2659 24.0386 28.2753 24.0329 28.2874L23.1275 27.8629ZM23.1178 27.8853L22.2178 27.4493C22.2251 27.4343 22.2312 27.4226 22.2347 27.4161C22.2366 27.4128 22.238 27.4102 22.2387 27.4088C22.2395 27.4075 22.2399 27.4066 22.2396 27.4072C22.2396 27.4072 22.2383 27.4095 22.2373 27.4114C22.236 27.4136 22.2341 27.4171 22.2318 27.4213C22.2274 27.4294 22.2202 27.4428 22.2119 27.4594L23.1067 27.9059L24.0014 28.3524C23.9949 28.3656 23.9895 28.3755 23.9869 28.3802C23.9856 28.3827 23.9846 28.3845 23.9843 28.385C23.9842 28.3852 23.9839 28.3857 23.9849 28.384C23.9859 28.3822 23.9903 28.3743 23.9954 28.3648C24.0008 28.3548 24.0088 28.3397 24.0177 28.3212L23.1178 27.8853ZM23.1067 27.9059L22.2067 27.47L22.0143 27.8672L22.9142 28.3032L23.8142 28.7391L24.0066 28.3418L23.1067 27.9059ZM22.9142 28.3032L23.3502 27.4032L23.3001 27.3789L22.8641 28.2789L22.4282 29.1789L22.4783 29.2032L22.9142 28.3032ZM22.8641 28.2789L22.0922 27.6433C21.8322 27.959 21.2625 28.244 20.3307 28.268C19.4236 28.2914 18.3103 28.0567 17.187 27.5126L16.7511 28.4126L16.3152 29.3126C17.6853 29.9762 19.1135 30.3001 20.3822 30.2674C21.626 30.2353 22.8662 29.8497 23.6361 28.9146L22.8641 28.2789ZM16.7511 28.4126L17.1871 27.5126C16.0638 26.9685 15.1894 26.2404 14.6454 25.5142C14.0865 24.7681 13.957 24.1445 14.0436 23.7448L13.0663 23.5331L12.089 23.3213C11.8325 24.5052 12.2988 25.7175 13.0447 26.7133C13.8055 27.729 14.9451 28.6489 16.3151 29.3125L16.7511 28.4126ZM13.0663 23.5331L13.5022 22.6331L13.4504 22.608L13.0144 23.508L12.5785 24.4079L12.6304 24.4331L13.0663 23.5331ZM13.0144 23.508L13.9144 23.9439L18.3669 14.7516L17.467 14.3157L16.567 13.8797L12.1145 23.072L13.0144 23.508ZM17.467 14.3157L17.031 15.2157L26.9308 20.0109L27.3668 19.1109L27.8027 18.2109L17.9029 13.4157L17.467 14.3157ZM27.3668 19.1109L26.4668 18.675L22.2275 27.4269L23.1275 27.8629L24.0275 28.2988L28.2667 19.5468L27.3668 19.1109Z" fill="#2F5BFF" mask="url(#path-3-inside-1_543_206)"/>
<rect x="17.9279" y="15.6516" width="2" height="7" transform="rotate(25.8444 17.9279 15.6516)" fill="#9EB3FF"/>
<path d="M27.8652 5.4635C32.4436 7.68115 34.5537 12.3007 32.9136 15.6867C31.2735 19.0727 26.3406 20.2809 21.7622 18.0632C17.1839 15.8456 15.0738 11.226 16.7139 7.84002C18.354 4.45402 23.2869 3.24586 27.8652 5.4635Z" fill="#5D84FF" stroke="#2F5BFF"/>
<ellipse cx="22.0997" cy="9.33768" rx="4" ry="3.5" transform="rotate(25.8444 22.0997 9.33768)" fill="#9EB3FF"/>
<rect x="13.217" y="32.259" width="2" height="9.67668" transform="rotate(25.8444 13.217 32.259)" fill="#DDDADA"/>
</svg>
